<?xml version="1.0" standalone="no"?>
<!DOCTYPE svg PUBLIC "-//W3C//DTD SVG 20010904//EN"
 "http://www.w3.org/TR/2001/REC-SVG-20010904/DTD/svg10.dtd">
<svg version="1.0" xmlns="http://www.w3.org/2000/svg"
 width="256.000000pt" height="256.000000pt" viewBox="0 0 256.000000 256.000000"
 preserveAspectRatio="xMidYMid meet">
<metadata>
Created by potrace 1.11, written by Peter Selinger 2001-2013
</metadata>
<g transform="translate(0.000000,256.000000) scale(0.100000,-0.100000)"
fill="#000000" stroke="none">
<path d="M1268 2493 c-78 -89 -198 -339 -228 -475 -7 -32 -17 -58 -21 -58 -4
0 -40 16 -79 36 -39 19 -86 38 -104 41 l-33 5 -16 -73 c-46 -203 -60 -360 -47
-534 4 -60 5 -113 1 -117 -3 -3 -35 7 -70 24 -68 31 -204 78 -227 78 -14 0
-19 -22 -33 -140 -45 -395 55 -733 283 -955 117 -114 290 -217 403 -239 10 -3
49 -11 86 -20 341 -80 759 144 942 504 68 135 115 345 115 518 0 86 -24 320
-34 330 -13 13 -230 -65 -304 -109 l-34 -19 8 67 c12 106 7 318 -11 432 -22
149 -45 242 -60 247 -7 3 -48 -10 -90 -30 -68 -31 -77 -33 -82 -18 -23 68 -67
161 -108 230 -47 79 -209 282 -231 289 -6 2 -17 -4 -26 -14z"/>
</g>
</svg>
